<?xml version="1.0" standalone="no"?>
<!DOCTYPE svg PUBLIC "-//W3C//DTD SVG 20010904//EN"
 "http://www.w3.org/TR/2001/REC-SVG-20010904/DTD/svg10.dtd">
<svg version="1.0" xmlns="http://www.w3.org/2000/svg"
 width="337.000000pt" height="337.000000pt" viewBox="0 0 337.000000 337.000000"
 preserveAspectRatio="xMidYMid meet">
<metadata>
Created by potrace 1.11, written by Peter Selinger 2001-2013
</metadata>
<g transform="translate(0.000000,337.000000) scale(0.100000,-0.100000)"
fill="#000000" stroke="none">
<path d="M1529 3357 c-2 -3 -31 -7 -64 -11 -33 -3 -71 -9 -85 -12 -14 -3 -36
-7 -50 -10 -14 -3 -50 -12 -80 -20 -30 -8 -62 -16 -70 -18 -66 -16 -328 -134
-375 -169 -5 -4 -35 -24 -65 -44 -30 -20 -56 -40 -58 -45 -2 -4 -8 -8 -13 -8
-43 0 -338 -312 -389 -410 -7 -14 -17 -27 -21 -30 -5 -3 -37 -62 -72 -130 -59
-118 -129 -303 -142 -379 -3 -19 -8 -37 -10 -40 -2 -4 -6 -27 -9 -51 -3 -25
-8 -56 -12 -70 -10 -39 -12 -376 -3 -426 5 -25 11 -66 15 -92 6 -44 61 -248
82 -302 5 -14 11 -29 13 -35 1 -5 20 -46 42 -90 125 -255 290 -456 507 -619
30 -22 61 -47 68 -53 7 -7 18 -13 23 -13 6 0 25 -11 42 -24 54 -40 249 -130
357 -164 116 -37 152 -45 290 -66 82 -13 395 -14 450 -3 14 3 41 8 60 11 50 7
218 52 290 77 141 49 391 193 500 289 85 75 230 224 230 237 0 3 10 14 22 24
11 11 17 19 12 19 -5 0 -4 4 2 8 32 21 217 342 197 342 -3 0 0 6 6 14 10 12
57 139 66 176 2 8 10 42 19 76 16 60 34 174 41 257 6 70 7 275 2 284 -3 4 -8
33 -11 63 -22 204 -121 483 -232 658 -19 29 -34 56 -34 61 0 5 -4 11 -8 13 -5
2 -20 20 -33 40 -104 154 -343 369 -509 458 -25 14 -52 30 -62 38 -9 7 -22 15
-30 16 -7 1 -22 7 -34 13 -23 13 -170 73 -194 79 -8 2 -54 15 -103 28 -48 14
-90 25 -92 25 -7 0 -65 10 -100 17 -36 7 -369 16 -376 11z"/>
</g>
</svg>
